<svg xmlns="http://www.w3.org/2000/svg" xmlns:xlink="http://www.w3.org/1999/xlink" width="48" height="48" viewBox="0 0 48 48">
  <defs>
    <clipPath id="clip-path">
      <rect id="長方形_73" data-name="長方形 73" width="34.686" height="33.249" fill="#fff"/>
    </clipPath>
  </defs>
  <g id="グループ_388" data-name="グループ 388" transform="translate(378 -9)">
    <rect id="長方形_324" data-name="長方形 324" width="48" height="48" transform="translate(-378 9)" fill="#1b3150"/>
    <g id="グループ_386" data-name="グループ 386" transform="translate(-370.5 16.429)">
      <g id="グループ_18" data-name="グループ 18" clip-path="url(#clip-path)">
        <path id="パス_3" data-name="パス 3" d="M14.6.345c3.357-.727,3.8-.492,5.047,2.543,3.249,7.924,6.472,15.859,9.8,23.752,1.055,2.5,2.065,5.131,5.24,6.609H25.3c1.56-1.552,1.295-3.129.57-4.81-2.539-5.89-7.105-9.719-12.805-12.345-2.3-1.062-2.439-.911-3.372,1.35-1.61,3.9-3.211,7.807-4.837,11.7-.572,1.372-.9,2.7.651,4.076H0c.627-.374,1.037-.579,1.4-.843a2.437,2.437,0,0,0,.914-3.174A22.2,22.2,0,0,1,.877,22.85c-.113-4.458,3.233-7.809,7.7-8.385a2.729,2.729,0,0,0,1.846-1.311c1.482-3.29,3.088-6.888,4.353-10.266.093-.247.279-.751.279-.751L14.6.345m-3.71,14.2c5.088,1.272,8.684,4.425,12.367,7.537L15.527,3.35,10.89,14.542M3.2,29.247s-.005,0,.006.008c.108.2.306.577.306.577s.176-.3.278-.486l5.745-14a7.2,7.2,0,0,0-6.684,3.509c-2.192,3.519-1.265,6.991.34,10.385" transform="translate(0 0)" fill="#fff"/>
      </g>
    </g>
    <path id="長方形_75" data-name="長方形 75" d="M-.3-.3H43.3V43.3H-.3Zm43,.6H.3V42.7H42.7Z" transform="translate(-375.5 11.5)" fill="#fff"/>
  </g>
</svg>
