<svg xmlns="http://www.w3.org/2000/svg" xmlns:xlink="http://www.w3.org/1999/xlink" width="395.963" height="395.427" viewBox="0 0 395.963 395.427">
  <defs>
    <clipPath id="clip-path">
      <rect id="長方形_121" data-name="長方形 121" width="41.4" height="41.4" fill="none"/>
    </clipPath>
    <clipPath id="clip-path-2">
      <rect id="長方形_122" data-name="長方形 122" width="55" height="55" transform="translate(7265 6512)" fill="#fff" stroke="#707070" stroke-width="1"/>
    </clipPath>
    <clipPath id="clip-path-3">
      <rect id="長方形_123" data-name="長方形 123" width="45" height="45" transform="translate(7270 6517)" fill="#fff" stroke="#707070" stroke-width="1"/>
    </clipPath>
    <clipPath id="clip-path-4">
      <rect id="長方形_119" data-name="長方形 119" width="21.233" height="21.233" fill="none"/>
    </clipPath>
    <clipPath id="clip-path-5">
      <rect id="長方形_119-2" data-name="長方形 119" width="22.465" height="22.465" fill="none"/>
    </clipPath>
    <clipPath id="clip-path-6">
      <rect id="長方形_119-3" data-name="長方形 119" width="13.622" height="13.622" fill="none"/>
    </clipPath>
    <clipPath id="clip-path-7">
      <rect id="長方形_119-4" data-name="長方形 119" width="14.71" height="14.71" fill="none"/>
    </clipPath>
  </defs>
  <g id="グループ_136" data-name="グループ 136" transform="translate(-6932.502 -6503.785)">
    <g id="グループ_124" data-name="グループ 124" transform="translate(7281.282 6509)">
      <path id="パス_90" data-name="パス 90" d="M38.057,31.655V3.087H9.28" transform="translate(-0.063 -0.021)" fill="none" stroke="#b19552" stroke-linecap="round" stroke-linejoin="round" stroke-width="0.75"/>
      <g id="グループ_123" data-name="グループ 123" transform="translate(0 0)">
        <g id="グループ_122" data-name="グループ 122" clip-path="url(#clip-path)">
          <path id="パス_91" data-name="パス 91" d="M17.406,7.014.931,10.134" transform="translate(-0.006 -0.048)" fill="none" stroke="#b19552" stroke-linecap="round" stroke-linejoin="round" stroke-width="0.75"/>
          <path id="パス_92" data-name="パス 92" d="M35.234,18.475,38.148,3.087,22.7,6.012" transform="translate(-0.154 -0.021)" fill="none" stroke="#b19552" stroke-linecap="round" stroke-linejoin="round" stroke-width="0.75"/>
          <path id="パス_93" data-name="パス 93" d="M31.212,40.158,34.32,23.745" transform="translate(-0.211 -0.161)" fill="none" stroke="#b19552" stroke-linecap="round" stroke-linejoin="round" stroke-width="0.75"/>
          <path id="パス_94" data-name="パス 94" d="M25.872,32.57c3.88-9.9,7.647-19.861,12.17-29.491a41.952,41.952,0,0,0-5.558,2.557,11.788,11.788,0,0,0,5.558-2.557c-9.884,4.035-19.791,8.01-29.654,12.1" transform="translate(-0.057 -0.021)" fill="none" stroke="#b19552" stroke-linecap="round" stroke-linejoin="round" stroke-width="0.75"/>
          <path id="パス_95" data-name="パス 95" d="M14.575,19.231Q9.8,22.5,5.023,25.766" transform="translate(-0.034 -0.131)" fill="none" stroke="#b19552" stroke-linecap="round" stroke-linejoin="round" stroke-width="0.75"/>
          <path id="パス_96" data-name="パス 96" d="M24.263,22.691q6.824-9.875,13.844-19.612A103.6,103.6,0,0,0,27.464,10.74,36.941,36.941,0,0,0,38.107,3.079q-9.979,6.84-19.969,13.667" transform="translate(-0.123 -0.021)" fill="none" stroke="#b19552" stroke-linecap="round" stroke-linejoin="round" stroke-width="0.75"/>
          <path id="パス_97" data-name="パス 97" d="M15.4,35.775q2.932-4.318,5.884-8.621" transform="translate(-0.104 -0.184)" fill="none" stroke="#b19552" stroke-linecap="round" stroke-linejoin="round" stroke-width="0.75"/>
          <line id="線_1" data-name="線 1" y1="22.015" x2="22.015" transform="translate(14.321 4.796)" fill="none" stroke="#b19552" stroke-linecap="round" stroke-linejoin="round" stroke-width="0.75"/>
          <path id="パス_98" data-name="パス 98" d="M9.686,33.345l.464,4.215L8.445,33.678l-3.419,2.51,2.51-3.419L3.653,31.064l4.215.464L7.4,27.312,9.11,31.195l3.419-2.509L10.019,32.1,13.9,33.809Z" transform="translate(-0.025 -0.185)" fill="#b19552"/>
          <path id="パス_99" data-name="パス 99" d="M26.182,39.959q-.331-.076-.606-.142c-1.865-.441-1.865-.441-2.83,1.216-.1.163-.2.342-.315.537a.147.147,0,0,1-.27-.108q.076-.331.142-.606c.441-1.865.441-1.865-1.216-2.83-.164-.1-.343-.2-.537-.314a.148.148,0,0,1,.108-.271q.331.076.606.142c1.865.441,1.865.441,2.83-1.216q.142-.244.314-.537a.148.148,0,0,1,.271.108q-.076.331-.142.606c-.441,1.865-.441,1.865,1.216,2.83.163.1.342.2.537.315a.146.146,0,0,1,.062.181.148.148,0,0,1-.17.089" transform="translate(-0.139 -0.242)" fill="#b19552"/>
          <path id="パス_100" data-name="パス 100" d="M41.5,38.5c-.231.025-.444.045-.638.064-1.962.193-1.962.193-2.348,2.126-.038.191-.079.4-.127.628a.151.151,0,0,1-.3-.015c-.025-.231-.045-.443-.064-.637-.193-1.963-.193-1.963-2.127-2.348l-.628-.127a.152.152,0,0,1,.015-.3l.638-.064c1.963-.193,1.963-.193,2.348-2.126.039-.191.08-.4.127-.628a.152.152,0,0,1,.3.015q.036.347.064.638c.192,1.962.192,1.962,2.126,2.348.191.038.4.079.628.127a.152.152,0,0,1-.015.3" transform="translate(-0.238 -0.237)" fill="#b19552"/>
          <path id="パス_101" data-name="パス 101" d="M1.684,15.46q.076.331.142.606c.441,1.866.441,1.866-1.216,2.83l-.537.315a.147.147,0,0,0,.108.27q.331-.076.606-.142c1.865-.441,1.865-.441,2.83,1.216.1.164.2.343.314.537a.148.148,0,0,0,.271-.107c-.051-.221-.1-.423-.142-.607-.441-1.865-.441-1.865,1.216-2.83l.537-.314a.148.148,0,0,0-.108-.271q-.331.076-.606.142c-1.865.441-1.865.441-2.83-1.216l-.315-.537a.146.146,0,0,0-.181-.062.148.148,0,0,0-.089.17" transform="translate(0 -0.104)" fill="#b19552"/>
          <path id="パス_102" data-name="パス 102" d="M3.14.136C3.115.367,3.1.58,3.076.774,2.884,2.735,2.884,2.735.951,3.122c-.191.038-.4.079-.628.127a.151.151,0,0,0,.015.3l.637.064C2.937,3.8,2.937,3.8,3.323,5.737c.039.192.08.4.127.629a.152.152,0,0,0,.3-.015c.024-.232.045-.444.064-.638.193-1.963.193-1.963,2.126-2.349l.628-.126a.153.153,0,0,0,.12-.157.15.15,0,0,0-.135-.143l-.638-.064C3.952,2.683,3.952,2.683,3.566.749,3.528.558,3.487.35,3.439.121a.151.151,0,0,0-.3.015" transform="translate(-0.001 0)" fill="#b19552"/>
        </g>
      </g>
    </g>
    <g id="マスクグループ_57" data-name="マスクグループ 57" clip-path="url(#clip-path-2)">
      <path id="パス_104" data-name="パス 104" d="M49.5,0A49.5,49.5,0,1,1,0,49.5,49.5,49.5,0,0,1,49.5,0Z" transform="translate(7266 6466)" fill="none" stroke="#b09452" stroke-width="1.5"/>
    </g>
    <g id="マスクグループ_58" data-name="マスクグループ 58" clip-path="url(#clip-path-3)">
      <g id="パス_103" data-name="パス 103" transform="translate(7272 6472)" fill="none">
        <path d="M44,0A44,44,0,1,1,0,44,44,44,0,0,1,44,0Z" stroke="none"/>
        <path d="M 44 0 C 19.699462890625 0 0 19.699462890625 0 44 C 0 68.300537109375 19.699462890625 88 44 88 C 68.300537109375 88 88 68.300537109375 88 44 C 88 19.699462890625 68.300537109375 0 44 0 M 44 -0.5 C 50.00724411010742 -0.5 55.83505630493164 0.6766433715820312 61.32156753540039 2.997230529785156 C 66.62065124511719 5.238555908203125 71.37960815429688 8.447113037109375 75.46625518798828 12.53374481201172 C 79.55288696289062 16.62039184570312 82.76144409179688 21.37934112548828 85.00276947021484 26.67843246459961 C 87.32335662841797 32.16494369506836 88.5 37.99275588989258 88.5 44 C 88.5 50.00724411010742 87.32335662841797 55.83505630493164 85.00276947021484 61.32156753540039 C 82.76144409179688 66.62065124511719 79.55288696289062 71.37960815429688 75.46625518798828 75.46625518798828 C 71.37960815429688 79.55288696289062 66.62065124511719 82.76144409179688 61.32156753540039 85.00276947021484 C 55.83505630493164 87.32335662841797 50.00724411010742 88.5 44 88.5 C 37.99275588989258 88.5 32.16494369506836 87.32335662841797 26.67843246459961 85.00276947021484 C 21.37934112548828 82.76144409179688 16.62039184570312 79.55288696289062 12.53374481201172 75.46625518798828 C 8.447113037109375 71.37960815429688 5.238555908203125 66.62065124511719 2.997230529785156 61.32156753540039 C 0.6766433715820312 55.83505630493164 -0.5 50.00724411010742 -0.5 44 C -0.5 37.99275588989258 0.6766433715820312 32.16494369506836 2.997230529785156 26.67843246459961 C 5.238555908203125 21.37934112548828 8.447113037109375 16.62039184570312 12.53374481201172 12.53374481201172 C 16.62039184570312 8.447113037109375 21.37934112548828 5.238555908203125 26.67843246459961 2.997230529785156 C 32.16494369506836 0.6766433715820312 37.99275588989258 -0.5 44 -0.5 Z" stroke="none" fill="#b09452"/>
      </g>
    </g>
    <g id="グループ_131" data-name="グループ 131" transform="translate(7257.8 6551.783)">
      <g id="グループ_111" data-name="グループ 111" transform="translate(0.2 0)" clip-path="url(#clip-path-4)">
        <path id="パス_89" data-name="パス 89" d="M10.616,21.233Q10.616,10.616,0,10.616,10.616,10.616,10.616,0q0,10.616,10.616,10.616-10.616,0-10.616,10.616" transform="translate(0 0)" fill="#b19552"/>
      </g>
    </g>
    <g id="グループ_134" data-name="グループ 134">
      <g id="グループ_130" data-name="グループ 130">
        <g id="グループ_129" data-name="グループ 129">
          <path id="パス_105" data-name="パス 105" d="M7320,6565v134.359" transform="translate(0 -0.859)" fill="none" stroke="#b09452" stroke-width="1.5"/>
          <path id="パス_106" data-name="パス 106" d="M7315,6560.5v138.016" transform="translate(0 -0.516)" fill="none" stroke="#b09452" stroke-width="0.5"/>
        </g>
        <g id="グループ_128" data-name="グループ 128">
          <g id="グループ_125" data-name="グループ 125" transform="translate(-1 8)">
            <g id="グループ_113" data-name="グループ 113" transform="translate(7307 6699)">
              <g id="グループ_111-2" data-name="グループ 111" transform="translate(0 0)" clip-path="url(#clip-path-5)">
                <path id="パス_89-2" data-name="パス 89" d="M11.233,22.465Q11.233,11.233,0,11.233,11.233,11.233,11.233,0q0,11.233,11.233,11.233-11.233,0-11.233,11.233" transform="translate(0 0)" fill="#b19552"/>
              </g>
            </g>
            <g id="グループ_114" data-name="グループ 114" transform="translate(7311 6727.777)">
              <g id="グループ_111-3" data-name="グループ 111" transform="translate(0 0)" clip-path="url(#clip-path-6)">
                <path id="パス_89-3" data-name="パス 89" d="M6.811,13.622Q6.811,6.811,0,6.811,6.811,6.811,6.811,0q0,6.811,6.811,6.811-6.811,0-6.811,6.811" transform="translate(0 0)" fill="#b09452"/>
              </g>
            </g>
          </g>
          <g id="グループ_127" data-name="グループ 127">
            <g id="グループ_126" data-name="グループ 126">
              <path id="パス_107" data-name="パス 107" d="M7320,6565v120" transform="translate(0 193.399)" fill="none" stroke="#b09452" stroke-width="1.5"/>
              <path id="パス_108" data-name="パス 108" d="M7315,6560.5V6681" transform="translate(0 197.899)" fill="none" stroke="#b09452" stroke-width="0.5"/>
            </g>
            <rect id="長方形_130" data-name="長方形 130" width="8" height="8" transform="translate(7312 6893.555) rotate(-45)" fill="#b09452"/>
          </g>
        </g>
      </g>
      <g id="グループ_133" data-name="グループ 133" transform="translate(2)">
        <g id="グループ_132" data-name="グループ 132" transform="translate(7293.25 6665.422)">
          <g id="グループ_111-4" data-name="グループ 111" transform="translate(0 0)" clip-path="url(#clip-path-7)">
            <path id="パス_89-4" data-name="パス 89" d="M7.355,14.71Q7.355,7.355,0,7.355,7.355,7.355,7.355,0q0,7.355,7.355,7.355-7.355,0-7.355,7.355" transform="translate(0 0)" fill="#b19552"/>
          </g>
        </g>
        <path id="パス_109" data-name="パス 109" d="M7301.982,6572.217V6660.2" transform="translate(-1.562 1)" fill="none" stroke="#b09452" stroke-width="0.5"/>
        <circle id="楕円形_85" data-name="楕円形 85" cx="2.5" cy="2.5" r="2.5" transform="translate(7297.921 6583)" fill="#b19552"/>
        <circle id="楕円形_86" data-name="楕円形 86" cx="3.5" cy="3.5" r="3.5" transform="translate(7296.921 6595)" fill="#b19552"/>
      </g>
    </g>
    <g id="グループ_135" data-name="グループ 135" transform="translate(6932.502 6537) rotate(-90)">
      <g id="グループ_130-2" data-name="グループ 130" transform="translate(10.75)">
        <g id="グループ_129-2" data-name="グループ 129" transform="translate(9 200.712)">
          <path id="パス_105-2" data-name="パス 105" d="M0,133.586V0" transform="translate(5)" fill="none" stroke="#b09452" stroke-width="1.5"/>
          <path id="パス_106-2" data-name="パス 106" d="M0,137.942V0" transform="translate(0 0.5)" fill="none" stroke="#b09452" stroke-width="0.5"/>
        </g>
        <g id="グループ_128-2" data-name="グループ 128">
          <g id="グループ_125-2" data-name="グループ 125" transform="translate(0 149.813)">
            <g id="グループ_113-2" data-name="グループ 113" transform="translate(0 19.934)">
              <g id="グループ_111-5" data-name="グループ 111" clip-path="url(#clip-path-5)">
                <path id="パス_89-5" data-name="パス 89" d="M11.232,0Q11.232,11.233,0,11.233q11.232,0,11.232,11.233,0-11.233,11.232-11.233Q11.232,11.233,11.232,0" transform="translate(0 0)" fill="#b19552"/>
              </g>
            </g>
            <g id="グループ_114-2" data-name="グループ 114" transform="translate(4 0)">
              <g id="グループ_111-6" data-name="グループ 111" clip-path="url(#clip-path-6)">
                <path id="パス_89-6" data-name="パス 89" d="M6.811,0Q6.811,6.811,0,6.811q6.811,0,6.811,6.811,0-6.811,6.811-6.811Q6.811,6.811,6.811,0" transform="translate(0 0)" fill="#b09452"/>
              </g>
            </g>
          </g>
          <g id="グループ_127-2" data-name="グループ 127" transform="translate(6)">
            <g id="グループ_126-2" data-name="グループ 126" transform="translate(3 20.313)">
              <path id="パス_107-2" data-name="パス 107" d="M0,120V0" transform="translate(5 0.5)" fill="none" stroke="#b09452" stroke-width="1.5"/>
              <path id="パス_108-2" data-name="パス 108" d="M0,120.5V0" fill="none" stroke="#b09452" stroke-width="0.5"/>
            </g>
            <rect id="長方形_130-2" data-name="長方形 130" width="8" height="8" transform="translate(5.657 0) rotate(45)" fill="#b09452"/>
          </g>
        </g>
      </g>
      <g id="グループ_133-2" data-name="グループ 133" transform="translate(0 219.079)">
        <g id="グループ_132-2" data-name="グループ 132" transform="translate(0 0)">
          <g id="グループ_111-7" data-name="グループ 111" clip-path="url(#clip-path-7)">
            <path id="パス_89-7" data-name="パス 89" d="M7.355,0Q7.355,7.355,0,7.355q7.355,0,7.355,7.355,0-7.355,7.355-7.355Q7.355,7.355,7.355,0" transform="translate(0 0)" fill="#b19552"/>
          </g>
        </g>
        <path id="パス_109-2" data-name="パス 109" d="M0,87.983V0" transform="translate(7.17 18.933)" fill="none" stroke="#b09452" stroke-width="0.5"/>
        <ellipse id="楕円形_85-2" data-name="楕円形 85" cx="2.5" cy="2.5" rx="2.5" ry="2.5" transform="translate(4.671 92.133)" fill="#b19552"/>
        <ellipse id="楕円形_86-2" data-name="楕円形 86" cx="3.5" cy="3.5" rx="3.5" ry="3.5" transform="translate(3.671 78.133)" fill="#b19552"/>
      </g>
    </g>
  </g>
</svg>
