<svg xmlns="http://www.w3.org/2000/svg" width="194.702" height="21.659" viewBox="0 0 194.702 21.659">
  <g id="グループ_186" data-name="グループ 186" transform="translate(-937 -3001.671)">
    <g id="グループ_182" data-name="グループ 182" transform="translate(2.351 -66)">
      <path id="パス_142" data-name="パス 142" d="M15.324-15.823h2.5v.161a1.181,1.181,0,0,0-1.266,1.322,5.845,5.845,0,0,0,.064.742L18.283-1.611a3.085,3.085,0,0,0,.338,1.146,1.067,1.067,0,0,0,.779.3V0H15.845V-.161a.605.605,0,0,0,.711-.683,5.767,5.767,0,0,0-.064-.63L14.867-13.095,9.2,0H9.088l-5.7-13.073L1.779-1.386a3.844,3.844,0,0,0-.043.607q0,.618.724.618V0H.043V-.161A1.2,1.2,0,0,0,.747-.3a.877.877,0,0,0,.242-.43,4.077,4.077,0,0,0,.129-.661l1.81-12.783a2.443,2.443,0,0,0-.883-1.279,1.942,1.942,0,0,0-.851-.215v-.161H4.176L9.741-2.881Z" transform="translate(1101.288 3089.249)" fill="#202020"/>
      <path id="パス_143" data-name="パス 143" d="M5.111-15.823v.161a2.314,2.314,0,0,0-.831.1.62.62,0,0,0-.451.376,5.751,5.751,0,0,0-.07,1.17V-1.879A5.041,5.041,0,0,0,3.84-.671a.725.725,0,0,0,.312.365A2.26,2.26,0,0,0,5.1-.161V0H.455V-.161c.53,0,1.156-.1,1.285-.306a3.108,3.108,0,0,0,.193-1.39V-13.88a3.262,3.262,0,0,0-.215-1.476c-.143-.233-.762-.335-1.264-.306v-.161Z" transform="translate(1124.24 3089.33)" fill="#202020"/>
      <path id="パス_139" data-name="パス 139" d="M.859-15.641v-.183h9.947v2.25h-.161a4.749,4.749,0,0,0-.542-1.5,1.727,1.727,0,0,0-1.08-.215H3.8v7.1H8.647c.48,0,.707.045.913-.134s.2-.664.2-.836h.161v2.438H9.765c-.036-.208.049-.781-.252-.919a1.3,1.3,0,0,0-.736-.107H3.8v4.888a4.494,4.494,0,0,0,.2,1.6.975.975,0,0,0,.649.612A5.422,5.422,0,0,0,6-.526H8.791a9.443,9.443,0,0,0,1.7-.091,1.258,1.258,0,0,0,.627-.363,3.119,3.119,0,0,0,.4-1.328h.161V0H.859V-.161A1.8,1.8,0,0,0,1.692-.37q.285-.177.285-.918V-14.063a3.469,3.469,0,0,0-.15-1.224Q1.676-15.641.859-15.641Z" transform="translate(1045.726 3089.249)" fill="#202020"/>
      <path id="パス_140" data-name="パス 140" d="M16.35-.161V0H9.969A11.677,11.677,0,0,1,6.751-.4,8.486,8.486,0,0,1,3.937-1.907a8.578,8.578,0,0,1-2.32-2.766A7.087,7.087,0,0,1,.73-8.057a7.348,7.348,0,0,1,1.112-3.771,8.487,8.487,0,0,1,3.164-3.056A9.183,9.183,0,0,1,9.657-16.06a13.384,13.384,0,0,1,4.931,1.031l.655,1.826h-.158a6.288,6.288,0,0,0-2.26-1.746,7.242,7.242,0,0,0-3.194-.693,6.276,6.276,0,0,0-5.014,2.3,8.539,8.539,0,0,0-1.954,5.72,9.1,9.1,0,0,0,.322,2.53A6.2,6.2,0,0,0,4.195-2.9a5.961,5.961,0,0,0,1.9,1.59A7.707,7.707,0,0,0,8.368-.6a11.394,11.394,0,0,0,2,.177l.849-.021a4.811,4.811,0,0,0,1.8-.269q.36-.215.36-1.1V-4.2a1.192,1.192,0,0,0-.29-.94,2.921,2.921,0,0,0-1.322-.209v-.161h4.875v.161a2.11,2.11,0,0,0-1.206.268A1.644,1.644,0,0,0,15.2-4.052v2.487a2.174,2.174,0,0,0,.2,1.077.778.778,0,0,0,.725.327Z" transform="translate(1061.044 3089.249)" fill="#202020"/>
      <path id="パス_136" data-name="パス 136" d="M9.593-16.06a7.554,7.554,0,0,1,5.446,2.025A6.707,6.707,0,0,1,17.155-8.98a9.337,9.337,0,0,1-2.449,6.563A8.4,8.4,0,0,1,8.207.247,7.189,7.189,0,0,1,2.825-1.9,7.123,7.123,0,0,1,.73-7.058a9.723,9.723,0,0,1,1.01-4.168,8.465,8.465,0,0,1,3.04-3.486A8.5,8.5,0,0,1,9.593-16.06ZM9.528-.591a6.615,6.615,0,0,0,3.223-.875,6.508,6.508,0,0,0,2.5-2.412,6.106,6.106,0,0,0,.913-3.158,7.47,7.47,0,0,0-1.23-4.179,8.738,8.738,0,0,0-3.19-2.943,7.688,7.688,0,0,0-3.625-1.063,6.145,6.145,0,0,0-4.27,1.772,5.754,5.754,0,0,0-1.917,4.4A8.46,8.46,0,0,0,4.275-3.137,7.011,7.011,0,0,0,9.528-.591Z" transform="translate(959.706 3088.968)" fill="#202020"/>
      <path id="パス_138" data-name="パス 138" d="M9.593-16.06a7.554,7.554,0,0,1,5.446,2.025A6.707,6.707,0,0,1,17.155-8.98a9.337,9.337,0,0,1-2.449,6.563A8.4,8.4,0,0,1,8.207.247,7.189,7.189,0,0,1,2.825-1.9,7.123,7.123,0,0,1,.73-7.058a9.723,9.723,0,0,1,1.01-4.168,8.465,8.465,0,0,1,3.04-3.486A8.5,8.5,0,0,1,9.593-16.06ZM9.528-.591a6.615,6.615,0,0,0,3.223-.875,6.508,6.508,0,0,0,2.5-2.412,6.106,6.106,0,0,0,.913-3.158,7.47,7.47,0,0,0-1.23-4.179,8.738,8.738,0,0,0-3.19-2.943,7.688,7.688,0,0,0-3.625-1.063,6.145,6.145,0,0,0-4.27,1.772,5.754,5.754,0,0,0-1.917,4.4A8.46,8.46,0,0,0,4.275-3.137,7.011,7.011,0,0,0,9.528-.591Z" transform="translate(994.29 3088.968)" fill="#202020"/>
      <path id="パス_137" data-name="パス 137" d="M13.583-16.622l-1.144,2.641h-.161a7.281,7.281,0,0,0,.161-.94.3.3,0,0,0-.177-.317,1.653,1.653,0,0,0-.563-.07H7.573V-1.771A3.251,3.251,0,0,0,7.708-.628a.651.651,0,0,0,.365.386,2.48,2.48,0,0,0,.747.08V0H4.533V-.161a1.463,1.463,0,0,0,1.01-.311,1.894,1.894,0,0,0,.2-1.073V-15.308H1.792a2.711,2.711,0,0,0-.783.07q-.182.07-.182.349a6,6,0,0,0,.1.908H.766l-.891-2.641H.036a2.218,2.218,0,0,0,.506.718,2.522,2.522,0,0,0,.81.081h10.5a3.511,3.511,0,0,0,.9-.081,1.575,1.575,0,0,0,.676-.718Z" transform="translate(979.191 3089.215)" fill="#202020"/>
      <path id="パス_135" data-name="パス 135" d="M21.46-21.577h3.166v.22c-1.151.059-2.138.075-2.138,1.816a7.97,7.97,0,0,0,.088,1.011L24.845-2.184c.137.814.142,1.313.461,1.563a2.144,2.144,0,0,0,1.216.4V0h-5.25V-.22c.646.02,1.587-.074,1.619-1.106a7.863,7.863,0,0,0-.088-.859L20.589-18.032,12.539,0H12.3L4.526-17.827,2.426-1.89a5.241,5.241,0,0,0-.059.828c.047.732,1.122.843,1.78.843V0h-4.5V-.22A3.7,3.7,0,0,0,1.018-.4a1.2,1.2,0,0,0,.33-.586,5.56,5.56,0,0,0,.176-.9L3.9-19.32c-.4-.967-.607-1.4-1.2-1.744A2.357,2.357,0,0,0,1.3-21.358v-.22H5.023l8.094,18.7Z" transform="translate(1015.759 3089.249)" fill="#202020"/>
      <path id="パス_141" data-name="パス 141" d="M15.007-12.731a3.67,3.67,0,0,0-.5-2.251,2.817,2.817,0,0,0-2.061-.53c-.062,0-.114-.058-.149-.124s-.2-.174-.136-.174l1.406.033q.931.066,1.49.066.435,0,1.3-.066l1.479-.033c.041,0-.1.115-.164.174s-.1.124-.142.124a2.013,2.013,0,0,0-1.692.6,3.973,3.973,0,0,0-.45,2.251v6.157a6.743,6.743,0,0,1-1.615,4.8A5.674,5.674,0,0,1,9.434.013,6.744,6.744,0,0,1,6.267-.731,5.654,5.654,0,0,1,4-2.867a6.291,6.291,0,0,1-.838-3.31v-7.051a4.542,4.542,0,0,0-.171-1.457,1.058,1.058,0,0,0-.652-.646,4.446,4.446,0,0,0-1.475-.182c-.062,0,.013.058-.079-.108s-.169-.19-.107-.19l1.59.033q1.118.066,1.77.066.776,0,1.956-.066l1.433-.033c.062,0-.036.069-.107.174s-.079.124-.141.124a3.386,3.386,0,0,0-1.348.2c-.331.132-.781.28-.895.6a4.706,4.706,0,0,0-.171,1.473v6.124A6.283,6.283,0,0,0,6.21-2.565,6.124,6.124,0,0,0,10.331-.879a4.56,4.56,0,0,0,3.449-1.607,5.937,5.937,0,0,0,1.226-4.022Z" transform="translate(1080.109 3089.236)" fill="#202020"/>
      <path id="パス_134" data-name="パス 134" d="M7.752-11.968h7l.238.714H7.242ZM23.766-.408q.136,0,.136.2t-.136.2Q23.12,0,21.76-.068T19.788-.136q-.748,0-1.9.068Q16.8,0,16.218,0q-.136,0-.136-.2t.136-.2a5.162,5.162,0,0,0,1.853-.238.853.853,0,0,0,.561-.85,3.859,3.859,0,0,0-.408-1.428L10.676-18.87l.85-1.054L4.93-4.318a5.265,5.265,0,0,0-.476,1.9q0,2.006,3.332,2.006.17,0,.17.2t-.17.2Q7.174,0,6.018-.068,4.726-.136,3.774-.136q-.884,0-2.04.068Q.714,0,.034,0q-.17,0-.17-.2t.17-.2A3.367,3.367,0,0,0,1.649-.765,3.679,3.679,0,0,0,2.907-2.023a16.505,16.505,0,0,0,1.309-2.6L11.39-21.556a.265.265,0,0,1,.238-.1q.17,0,.2.1l8.024,16.9a13.765,13.765,0,0,0,1.972,3.383A2.573,2.573,0,0,0,23.766-.408Z" transform="translate(934.785 3089.33)" fill="#202020"/>
    </g>
  </g>
</svg>
