<?xml version="1.0" encoding="UTF-8"?>
<svg id="_レイヤー_2" data-name="レイヤー 2" xmlns="http://www.w3.org/2000/svg" viewBox="0 0 651.81 109.82">
  <defs>
    <style>
      .cls-1 {
        fill: #fff;
      }
    </style>
  </defs>
  <g id="_レイヤー_1-2" data-name="レイヤー 1">
    <g>
      <path class="cls-1" d="M90.72,100.06c-7.89-3.94-14.34-9.88-19.34-17.81-5-7.93-7.5-17.56-7.5-28.89s2.48-21.41,7.44-29.3c4.96-7.89,11.39-13.73,19.28-17.52,7.89-3.79,16.21-5.68,24.96-5.68s16.83,1.99,24.73,5.98c7.89,3.98,14.34,9.94,19.34,17.87,5,7.93,7.5,17.56,7.5,28.89s-2.48,21.29-7.44,29.18c-4.96,7.89-11.39,13.73-19.28,17.52-7.89,3.79-16.17,5.68-24.84,5.68s-16.95-1.97-24.84-5.92ZM141.46,98.71c6.09-3.59,10.76-8.61,14-15.06,3.24-6.44,4.86-13.89,4.86-22.32,0-9.84-2.17-19.28-6.5-28.3s-10.25-16.33-17.75-21.91c-7.5-5.58-15.78-8.38-24.84-8.38-8.28,0-15.47,1.84-21.56,5.51-6.09,3.67-10.76,8.75-14,15.23-3.24,6.49-4.86,13.87-4.86,22.15,0,10,2.15,19.49,6.45,28.48,4.3,8.98,10.2,16.23,17.7,21.74s15.78,8.26,24.84,8.26c8.36,0,15.59-1.8,21.68-5.39Z"/>
      <path class="cls-1" d="M231.17,108.15c-1.84-.35-3.54-.96-5.1-1.82-3.67-2.03-6.66-5.35-8.96-9.96-2.31-4.61-4.86-15.86-7.68-23.75-2.04-5.83-2.48-9.95-3.53-12.57-1.05-2.62-1.78-3.66-3.03-5.77-.86-1.41-1.89-2.2-3.06-3.08-.96-.72-1.42-1.02-2.93-1.6-.19-.07-.51-.14-.69-.22-1.43-.56-2.43-.64-3.83-1.18s-2.72.21-2.72,1.77v39.01c0,3.44.17,5.3.68,7.06.51,1.76.09,2.08,1.61,4.13,1.02,1.38,4.93,2.82,10.2,4.4l-.12.23c-1.54-.15-5.49-.31-7.03-.46-.05,0-.09,0-.14,0-2.03-.07-4.98-.11-8.84-.11-1.88,0-4.61.12-8.2.35l-6.9.23v-.23c3.2-.94,8.35-2.09,9.61-4.51,1.25-2.42,1.16-6.47,1.16-11.08V17.86c0-4.53-.79-7.98-2.11-10.49-1.96-3.73-6.01-4.61-8.9-5.55v-.23l6.68,1.04c3.91.55,6.68.82,8.32.82s3.83-.23,6.8-.7c2.99-.48,5.18-.7,6.68-.7,7.34,0,12.83,1.5,16.46,4.51,3.63,3.01,5.74,9.4,5.74,17.44,0,5.16-.75,8.74-2.35,13.5-1.6,4.77-4.59,6.98-6.33,8.48-3.33,2.86-7.43,3.53-11.42,3.68v.12c.86.08,1.68.2,2.46.35.78.16,1.56.35,2.34.59,1.72.55,3.22,1.52,4.51,2.93s2.36,3.24,3.22,5.51c1.01,2.66,2.5,7.34,4.45,14.06,1.95,6.64,3.67,16.99,5.16,21.05,1.48,4.06,3.36,7.46,5.62,10.2,2.27,2.73,4.92,3.91,7.97,3.52l.12.23c-2.11.31-4.08.29-5.92-.06ZM206.32,46.55c2.07-1.52,3.92-3.44,5.08-6.19,1.29-3.03,2.83-9.51,2.83-14.27,0-10.16-.51-11.42-2.9-16.38-2.38-4.96-8.32-5.79-13.24-5.79-2.42,0-4.47.62-6.3,1.61-1.95,1.05-2.17,2.64-2.17,4.6v34.53c0,.8.38.89,1.08,1.27,1.55.82,2.92,1.39,4.12,1.7,1.48.39,2.81.59,3.98.59,2.89,0,5.45-.13,7.52-1.65Z"/>
      <path class="cls-1" d="M255.97,102.6c1.83-2.34,2.03-7.19,2.03-12.19V5.69h-3.98c-2.89,0-5.62-.29-8.2,1s-4.88,3.11-6.91,5.45c-2.19,2.5-4.26,8.35-5.51,11.78h-.23l6.33-23.92h.15c1.09.78,3.75,2.61,8.28,3.23,4.53.63,9.18.94,13.95.94,5.16,0,9.92-.31,14.3-.94,4.37-.62,6.96-2.45,8.06-3.23h.3l6.94,24.08h-.23c-1.25-3.44-4.08-9.44-6.27-11.95-2.03-2.34-4.34-4.16-6.91-5.45s-5.31-1.04-8.2-1.04h-3.98v84.77c0,5-.01,9.76,1.82,12.1,1.83,2.34,6.63,2.67,9.99,3.44v.23l-6.77-.08c-4.45-.23-7.42-.35-8.91-.35-1.56,0-4.57.12-9.02.35l-6.62.23v-.23c3.52-.78,7.79-1.17,9.62-3.52Z"/>
      <path class="cls-1" d="M304.5,102.28c1.21-2.46,1.1-7.25,1.1-11.86V19.4c0-4.92.19-9.6-1.21-12.07s-6.4-3.09-9.92-3.87v-.12l6.68.23,9.49.47c6.79,0,13.87-.29,21.5-.88,7.54-.59,11.7-.58,12.41-3.17h.23c.82,5.6.77,6.02,2.18,11.84,1.41,5.82,3.35,12.8,4.13,15.3h-.35c-2.5-6.48-5.58-13.88-7.53-16.53-1.95-2.66-3.3-4.36-5.96-5.07-2.66-.7-8.7-.34-14.48-.34-3.52,0-6.28.22-7.88,1.47-1.6,1.25-1.34,2.73-1.34,5v26.34c0,.16.08.31.23.47.16.16.31.23.47.23h9.73c3.12,0,6.09.38,8.12-.36,2.03-.74,3.41-1.16,4.5-2.64,1.09-1.48,1.27-6.99,1.14-9.29h.23c.23,1.8,1.13,6.29,1.36,8.08.31,2.58.85,4.26,1.09,5.27l1.14,5.04c.78,2.58,2.23,8.95,2.47,10.04h-.23c-2.18-5.99-4.54-11.04-7.63-12.83-3.09-1.8-7.57-1.65-11.95-1.65h-9.96c-.16,0-.31.08-.47.23s-.23.31-.23.47v49.34c0,4.61.15,9.76,1.37,12.22,1.21,2.46,7.5,2.55,10.7,3.48v.23l-9.02-.23c-2.34-.16-4.69-.27-7.03-.35-2.34.08-4.69.2-7.03.35l-8.08.23v-.23c3.2-.94,8.82-1.38,10.03-3.84Z"/>
      <path class="cls-1" d="M378.48,102.06c-7.89-3.94-14.34-9.88-19.34-17.81-5-7.93-7.5-17.56-7.5-28.89s2.48-21.41,7.44-29.3c4.96-7.89,11.39-13.73,19.28-17.52,7.89-3.79,16.21-5.68,24.96-5.68s16.83,1.99,24.73,5.98c7.89,3.98,14.34,9.94,19.34,17.87,5,7.93,7.5,17.56,7.5,28.89s-2.48,21.29-7.44,29.18c-4.96,7.89-11.39,13.73-19.28,17.52-7.89,3.79-16.17,5.68-24.84,5.68s-16.95-1.97-24.84-5.92ZM429.22,100.71c6.09-3.59,10.76-8.61,14-15.06,3.24-6.44,4.86-13.89,4.86-22.32,0-9.84-2.17-19.28-6.5-28.3s-10.25-16.33-17.75-21.91c-7.5-5.58-15.78-8.38-24.84-8.38-8.28,0-15.47,1.84-21.56,5.51-6.09,3.67-10.76,8.75-14,15.23-3.24,6.49-4.86,13.87-4.86,22.15,0,10,2.15,19.49,6.45,28.48,4.3,8.98,10.2,16.23,17.7,21.74s15.78,8.26,24.84,8.26c8.36,0,15.59-1.8,21.68-5.39Z"/>
      <path class="cls-1" d="M503.74,107.75c-1.92-.47-5.25-.8-10.02-1-4.77-.19-11.91-.37-21.45-.53-1.48,0-3.87.12-7.15.35l-8.49.02v-.23c3.05-.7,8.96-1.19,10.25-3.81,1.29-2.62,1.4-7.11,1.4-11.57l.12-71.13v-.47c0-2.81-.2-3.85-.35-6.2-.59-2.11-.73-4.7-3.23-6.34-1.5-.99-6.17-2.23-8.2-2.7v-.23l8.61.23c3.28.23,5.66.35,7.15.35,1.41,0,3.71-.12,6.91-.35l8.5-.23v.23c-1.93.47-6.64,1.35-8.42,2.79-3.28,2.64-3.12,7-3.12,12.91v78.87c0,2.03.15,2.72,1.74,4.15,1.37,1.22,5.95,1.42,9.39,1.42,5.78,0,8.94.53,11.6-.17,2.66-.7,4.97-1.69,6.92-4.34,1.95-2.65,4.42-10.56,6.32-17.4h.35c-.78,2.5-1.8,9.73-3.21,15.54-1.41,5.82-1.89,10.33-1.96,11.89h-.23c-.41-1.26-1.53-1.6-3.44-2.07Z"/>
      <path class="cls-1" d="M524.95,102.07c1.29-2.62,1.47-6.62,1.47-11.08V19.86c0-4.45.58-10.31-1.22-12.75-1.76-2.38-7.51-2.14-10.55-2.84v-.23l8.61.23c3.28.23,5.66.35,7.15.35,1.41,0,3.71-.12,6.91-.35l8.49-.23v.23c-2.81.68-7.85.15-9.92,2.87-1.96,2.58-1.62,8.3-1.62,12.71v71.13c0,7.75-.37,9.51,1.46,11.86,2.74,2.74,8.68,3.25,10.08,3.73v.23l-8.49-.23c-3.2-.23-5.51-.35-6.91-.35-1.48,0-3.87.12-7.15.35l-8.61.23v-.23c3.05-.7,9.02-1.89,10.31-4.51Z"/>
      <path class="cls-1" d="M575.4,102.06c-7.89-3.94-14.34-9.88-19.34-17.81-5-7.93-7.5-17.56-7.5-28.89s2.48-21.41,7.44-29.3c4.96-7.89,11.39-13.73,19.28-17.52,7.89-3.79,16.21-5.68,24.96-5.68s16.83,1.99,24.73,5.98c7.89,3.98,14.33,9.94,19.34,17.87,5,7.93,7.5,17.56,7.5,28.89s-2.48,21.29-7.44,29.18c-4.96,7.89-11.39,13.73-19.28,17.52-7.89,3.79-16.17,5.68-24.84,5.68s-16.95-1.97-24.84-5.92ZM626.15,100.71c6.09-3.59,10.76-8.61,14-15.06,3.24-6.44,4.86-13.89,4.86-22.32,0-9.84-2.17-19.28-6.5-28.3s-10.25-16.33-17.75-21.91c-7.5-5.58-15.78-8.38-24.84-8.38-8.28,0-15.47,1.84-21.56,5.51-6.09,3.67-10.76,8.75-14,15.23-3.24,6.49-4.86,13.87-4.86,22.15,0,10,2.15,19.49,6.45,28.48,4.3,8.98,10.2,16.23,17.7,21.74s15.78,8.26,24.84,8.26c8.36,0,15.59-1.8,21.68-5.39Z"/>
      <path class="cls-1" d="M52.28,7.31c-3.71-3.52-9.33-5.43-16.52-5.43-2,0-4.01-.14-6.72.15-2.97.31-5.17.63-6.73.63-1.36,0-3.22-.05-5.58-.19-1.73-.31-3.4-.53-4.16-.48-.83.06-1.73.16-2.55.29-.23.03-.45.07-.68.11h-.05s0,0,0,0C5.19,3.19,1.48,6.09.4,10.24c-2.13,7.17,4.68,11.95,10.51,13.95,0,0,.12-.24.12-.24-2.58-1.59-5.26-3.15-7.03-5.42C-1.76,11.35,6,3.14,14.03,5.09c.35.04.61.14.83.21,1.18,1.27,2.07,2.89,2.67,4.88.62,2.07.94,4.63.94,7.68v71.13c0,3.05-.04,5.66-.55,7.69-.51,2.03-.51,4.15-1.83,5.38-1.86,1.73-6.16,2.09-8.4,2.4v.23h4.45c5.16-.31,8.71-.47,10.66-.47,2.27,0,4.61.04,7.03.12,2.42.08,7.07.35,9.02.59l.12-.23c-3.87-.94-8.12-1.83-9.48-2.93-1.37-1.09-1.79-3.22-2.3-4.98-.51-1.76-.76-4.35-.76-7.79v-38.44c0-2.27,1.51-4.05,4.38-3.14,2.05.65,4.21,1.06,6.52,1.06,4.14,0,8.4-.76,11.63-3.74,2.24-2.06,3.64-3.29,5.67-7.7,2.23-4.82,2.87-7.9,2.87-13.37,0-8.12-1.52-12.84-5.23-16.35ZM47.53,40.42c-3.21,4.68-7.3,5.99-11.83,5.99-1.33,0-2.7-.16-4.1-.47-.94-.21-2.01-.61-3.22-1.19-1.18-.57-1.93-1.76-1.93-3.07V10.12c0-2.58.51-3.57,2-4.79,1.48-1.21,3.55-1.82,6.21-1.82,3.2,0,6.84.73,9.56,2.93,2.95,2.38,4.63,4.89,5.54,8.02.54,1.85,1.24,4.43,1.24,9.2,0,7.11-.46,12.39-3.46,16.76Z"/>
    </g>
  </g>
</svg>