<?xml version="1.0" encoding="UTF-8"?>
<svg id="_レイヤー_1" data-name="レイヤー_1" xmlns="http://www.w3.org/2000/svg" version="1.1" viewBox="0 0 99.39 99.39">
  <!-- Generator: Adobe Illustrator 29.7.1, SVG Export Plug-In . SVG Version: 2.1.1 Build 8)  -->
  <path id="_パス_303" data-name="パス_303" d="M90.89,97.96c-1.17,1.17-3.07,1.17-4.24,0l-36.77-36.77L13.11,97.96c-1.17,1.17-3.07,1.17-4.24,0l-7.07-7.07c-1.17-1.17-1.17-3.07,0-4.24l36.77-36.77L1.79,13.11c-1.17-1.17-1.17-3.07,0-4.24L8.87,1.79c1.17-1.17,3.07-1.17,4.24,0l36.77,36.77L86.65,1.79c1.17-1.17,3.07-1.17,4.24,0l7.07,7.07c1.17,1.17,1.17,3.07,0,4.24l-36.77,36.77,36.77,36.77c1.17,1.17,1.17,3.07,0,4.24l-7.07,7.07Z"/>
</svg>